# xmcd
#
# Track frame offsets:
#	150
#	14262
#	26167
#	39087
#	51150
#	63537
#	76282
#	90425
#	102200
#	115812
#	128400
#	142322
#	155015
#
# Disc length: 2236
#
# Revision: 2
# Processed by: cddbd v1.5.1PL0 Copyright (c) Steve Scherf et al.
# Submitted via: CD-DA_X-Tractor v0.23
# Normalized: r0:TDELIM( - ),TSWAP
#
DISCID=a308ba0d
DTITLE=Assorted - Original Artists - Original Tracks Blues Disk 1
DYEAR=1997
DGENRE=
TTITLE0=Howlin' Wolf - Smokestack Lightnin'
TTITLE1=Little Walter - My Babe
TTITLE2=Tommy Tucker - High Heeled Sneakers
TTITLE3=Little Milton - We're Gonna Make It
TTITLE4=John Lee Hooker - I'm In The Mood
TTITLE5=Howlin' Wolf - Fourty Four
TTITLE6=Sonny Boy Williamson - Help Me
TTITLE7=Etta James - I'd Rahter Go Blind
TTITLE8=Koko Taylor - Wang Dang Doodle
TTITLE9=Muddy Waters - I'm Your Hoochie Coochie Man
TTITLE10=Willie Dixon - Walkin' The Blues
TTITLE11=Jimmy Rogers - Walking By Myself
TTITLE12=Jimmy Witherspoon - When The Lights Go Out
EXTD=
EXTT0=
EXTT1=
EXTT2=
EXTT3=
EXTT4=
EXTT5=
EXTT6=
EXTT7=
EXTT8=
EXTT9=
EXTT10=
EXTT11=
EXTT12=
PLAYORDER=
